<svg xmlns="http://www.w3.org/2000/svg" viewBox="0 0 1811 1422" width="1811" height="1422" preserveAspectRatio="xMidYMid meet" style="width: 100%; height: 100%; transform: translate3d(0px, 0px, 0px);"><defs><clipPath id="__lottie_element_2"><rect width="1811" height="1422" x="0" y="0"></rect></clipPath><clipPath id="__lottie_element_4"><path d="M0,0 L1811,0 L1811,1422 L0,1422z"></path></clipPath><mask id="__lottie_element_25" mask-type="alpha"><g transform="matrix(1,0,0,1,270.010986328125,309.98602294921875)" opacity="1" style="display: block;"><g opacity="1" transform="matrix(1,0,0,1,635.625,400.625)"><path fill="rgb(255,255,255)" fill-opacity="1" d=" M-577,-400 C-577,-400 577,-400 577,-400 C609.031982421875,-400 635,-374.0320129394531 635,-342 C635,-342 635,342 635,342 C635,374.0329895019531 609.031982421875,400 577,400 C577,400 -577,400 -577,400 C-609.0330200195312,400 -635,374.0329895019531 -635,342 C-635,342 -635,-342 -635,-342 C-635,-374.0320129394531 -609.0330200195312,-400 -577,-400z"></path><path stroke-linecap="butt" stroke-linejoin="miter" fill-opacity="0" stroke-miterlimit="10" stroke="rgb(0,0,0)" stroke-opacity="1" stroke-width="0.25" d=" M-577,-400 C-577,-400 577,-400 577,-400 C609.031982421875,-400 635,-374.0320129394531 635,-342 C635,-342 635,342 635,342 C635,374.0329895019531 609.031982421875,400 577,400 C577,400 -577,400 -577,400 C-609.0330200195312,400 -635,374.0329895019531 -635,342 C-635,342 -635,-342 -635,-342 C-635,-374.0320129394531 -609.0330200195312,-400 -577,-400z"></path></g></g></mask><clipPath id="__lottie_element_29"><path d="M0,0 L1811,0 L1811,1422 L0,1422z"></path></clipPath><mask id="__lottie_element_36" mask-type="alpha"><g transform="matrix(1,0,0,1,1013.885986328125,515.8610229492188)" opacity="1" style="display: block;"><g opacity="1" transform="matrix(1,0,0,1,209.75,209.75)"><path fill="rgb(238,241,246)" fill-opacity="1" d=" M-189.5,-209.5 C-189.5,-209.5 189.5,-209.5 189.5,-209.5 C200.5449981689453,-209.5 209.5,-200.5449981689453 209.5,-189.5 C209.5,-189.5 209.5,189.5 209.5,189.5 C209.5,200.54600524902344 200.5449981689453,209.5 189.5,209.5 C189.5,209.5 -189.5,209.5 -189.5,209.5 C-200.54600524902344,209.5 -209.5,200.54600524902344 -209.5,189.5 C-209.5,189.5 -209.5,-189.5 -209.5,-189.5 C-209.5,-200.5449981689453 -200.54600524902344,-209.5 -189.5,-209.5z"></path></g></g></mask><clipPath id="__lottie_element_39"><path fill="#ffffff" clip-rule="nonzero" d=" M-199.75,-3.75 C-199.75,-3.75 -199.75,415.25 -199.75,415.25 C-199.75,415.25 219.25,415.25 219.25,415.25 C219.25,415.25 219.25,-3.75 219.25,-3.75 C219.25,-3.75 -199.75,-3.75 -199.75,-3.75" fill-opacity="1"></path></clipPath></defs><g clip-path="url(#__lottie_element_2)"><g clip-path="url(#__lottie_element_4)" transform="matrix(1,0,0,1,0,0)" opacity="1" style="display: block;"><g transform="matrix(1,0,0,1,270.010986328125,309.98602294921875)" opacity="1" style="display: block;"><g opacity="1" transform="matrix(1,0,0,1,635.625,400.625)"><path fill="rgb(255,255,255)" fill-opacity="1" d=" M-577,-400 C-577,-400 577,-400 577,-400 C609.031982421875,-400 635,-374.0320129394531 635,-342 C635,-342 635,342 635,342 C635,374.0329895019531 609.031982421875,400 577,400 C577,400 -577,400 -577,400 C-609.0330200195312,400 -635,374.0329895019531 -635,342 C-635,342 -635,-342 -635,-342 C-635,-374.0320129394531 -609.0330200195312,-400 -577,-400z"></path><path stroke-linecap="butt" stroke-linejoin="miter" fill-opacity="0" stroke-miterlimit="10" stroke="rgb(112,112,112)" stroke-opacity="1" stroke-width="1" d=" M-577,-400 C-577,-400 577,-400 577,-400 C609.031982421875,-400 635,-374.0320129394531 635,-342 C635,-342 635,342 635,342 C635,374.0329895019531 609.031982421875,400 577,400 C577,400 -577,400 -577,400 C-609.0330200195312,400 -635,374.0329895019531 -635,342 C-635,342 -635,-342 -635,-342 C-635,-374.0320129394531 -609.0330200195312,-400 -577,-400z"></path></g></g><g mask="url(#__lottie_element_25)" style="display: block;"><g clip-path="url(#__lottie_element_29)" transform="matrix(1.2100000381469727,0,0,2.009999990463257,-197.155029296875,-746.1099853515625)" opacity="1"><g mask="url(#__lottie_element_36)" style="display: block;"><g transform="matrix(1,0,0,1,1017.885986328125,515.8610229492188)" opacity="1"><g opacity="1" transform="matrix(1,0,0,1,209.75,209.75)"><path fill="rgb(238,241,246)" fill-opacity="1" d=" M-189.5,-209.5 C-189.5,-209.5 189.5,-209.5 189.5,-209.5 C200.5449981689453,-209.5 209.5,-200.5449981689453 209.5,-189.5 C209.5,-189.5 209.5,189.5 209.5,189.5 C209.5,200.54600524902344 200.5449981689453,209.5 189.5,209.5 C189.5,209.5 -189.5,209.5 -189.5,209.5 C-200.54600524902344,209.5 -209.5,200.54600524902344 -209.5,189.5 C-209.5,189.5 -209.5,-189.5 -209.5,-189.5 C-209.5,-200.5449981689453 -200.54600524902344,-209.5 -189.5,-209.5z"></path></g></g></g><g clip-path="url(#__lottie_element_39)" transform="matrix(1,0,0,1,1217.885986328125,515.8610229492188)" opacity="1" style="display: block;"><g opacity="1" transform="matrix(1,0,0,1,-240.2384796142578,209.75)"><path fill="rgb(52,93,238)" fill-opacity="1" d=" M-189.5,-209.5 C-189.5,-209.5 189.5,-209.5 189.5,-209.5 C200.5449981689453,-209.5 209.5,-200.5449981689453 209.5,-189.5 C209.5,-189.5 209.5,189.5 209.5,189.5 C209.5,200.54600524902344 200.5449981689453,209.5 189.5,209.5 C189.5,209.5 -189.5,209.5 -189.5,209.5 C-200.54600524902344,209.5 -209.5,200.54600524902344 -209.5,189.5 C-209.5,189.5 -209.5,-189.5 -209.5,-189.5 C-209.5,-200.5449981689453 -200.54600524902344,-209.5 -189.5,-209.5z"></path></g><g opacity="1" transform="matrix(1,0,0,1,10.11141586303711,209.75)"><path fill="rgb(238,52,101)" fill-opacity="1" d=" M-189.5,-209.5 C-189.5,-209.5 189.5,-209.5 189.5,-209.5 C200.5449981689453,-209.5 209.5,-200.5449981689453 209.5,-189.5 C209.5,-189.5 209.5,189.5 209.5,189.5 C209.5,200.54600524902344 200.5449981689453,209.5 189.5,209.5 C189.5,209.5 -189.5,209.5 -189.5,209.5 C-200.54600524902344,209.5 -209.5,200.54600524902344 -209.5,189.5 C-209.5,189.5 -209.5,-189.5 -209.5,-189.5 C-209.5,-200.5449981689453 -200.54600524902344,-209.5 -189.5,-209.5z"></path></g><g opacity="1" transform="matrix(1,0,0,1,-7.804083347320557,209.75)"><path fill="rgb(16,223,191)" fill-opacity="1" d=" M-189.5,-209.5 C-189.5,-209.5 119.5,-207.5 119.5,-207.5 C130.5449981689453,-207.5 139.5,-198.5449981689453 139.5,-187.5 C139.5,-187.5 93.5,183.5 93.5,183.5 C93.5,194.54600524902344 84.54499816894531,203.5 73.5,203.5 C73.5,203.5 -189.5,209.5 -189.5,209.5 C-200.54600524902344,209.5 -209.5,200.54600524902344 -209.5,189.5 C-209.5,189.5 -209.5,-189.5 -209.5,-189.5 C-209.5,-200.5449981689453 -200.54600524902344,-209.5 -189.5,-209.5z"></path></g></g></g></g><g transform="matrix(1,0,0,1,377.885986328125,356.8609924316406)" opacity="1" style="display: block;"><g opacity="1" transform="matrix(1,0,0,1,19.25,19.25)"><path fill="rgb(223,227,234)" fill-opacity="1" d=" M0,-19 C10.493000030517578,-19 19,-10.493000030517578 19,0 C19,10.494000434875488 10.493000030517578,19 0,19 C-10.494000434875488,19 -19,10.494000434875488 -19,0 C-19,-10.493000030517578 -10.494000434875488,-19 0,-19z"></path></g><g opacity="1" transform="matrix(1,0,0,1,319.75,19.25)"><path fill="rgb(223,227,234)" fill-opacity="1" d=" M-126.5,-11 C-126.5,-11 126.5,-11 126.5,-11 C132.5749969482422,-11 137.5,-6.074999809265137 137.5,0 C137.5,6.074999809265137 132.5749969482422,11 126.5,11 C126.5,11 -126.5,11 -126.5,11 C-132.5749969482422,11 -137.5,6.074999809265137 -137.5,0 C-137.5,-6.074999809265137 -132.5749969482422,-11 -126.5,-11z"></path></g></g><g transform="matrix(1,0,0,1,377.885986328125,515.8610229492188)" opacity="1" style="display: block;"><g opacity="1" transform="matrix(1,0,0,1,227.75,23.25)"><path fill="rgb(223,227,234)" fill-opacity="1" d=" M-207.5,-23 C-207.5,-23 207.5,-23 207.5,-23 C218.5449981689453,-23 227.5,-14.045000076293945 227.5,-3 C227.5,-3 227.5,3 227.5,3 C227.5,14.045999526977539 218.5449981689453,23 207.5,23 C207.5,23 -207.5,23 -207.5,23 C-218.54600524902344,23 -227.5,14.045999526977539 -227.5,3 C-227.5,3 -227.5,-3 -227.5,-3 C-227.5,-14.045000076293945 -218.54600524902344,-23 -207.5,-23z"></path></g></g><g transform="matrix(1,0,0,1,377.885986328125,578.8610229492188)" opacity="1" style="display: block;"><g opacity="1" transform="matrix(1,0,0,1,194.75,23.25)"><path fill="rgb(223,227,234)" fill-opacity="1" d=" M-174.5,-23 C-174.5,-23 174.5,-23 174.5,-23 C185.5449981689453,-23 194.5,-14.045000076293945 194.5,-3 C194.5,-3 194.5,3 194.5,3 C194.5,14.045999526977539 185.5449981689453,23 174.5,23 C174.5,23 -174.5,23 -174.5,23 C-185.54600524902344,23 -194.5,14.045999526977539 -194.5,3 C-194.5,3 -194.5,-3 -194.5,-3 C-194.5,-14.045000076293945 -185.54600524902344,-23 -174.5,-23z"></path></g></g><g transform="matrix(1,0,0,1,377.885986328125,664.8610229492188)" opacity="1" style="display: block;"><g opacity="1" transform="matrix(1,0,0,1,159.25,43.25)"><path fill="rgb(223,227,234)" fill-opacity="1" d=" M-148,-11 C-148,-11 148,-11 148,-11 C154.0749969482422,-11 159,-6.074999809265137 159,0 C159,6.074999809265137 154.0749969482422,11 148,11 C148,11 -148,11 -148,11 C-154.0749969482422,11 -159,6.074999809265137 -159,0 C-159,-6.074999809265137 -154.0749969482422,-11 -148,-11z"></path></g><g opacity="1" transform="matrix(1,0,0,1,159.25,11.25)"><path fill="rgb(223,227,234)" fill-opacity="1" d=" M-148,-11 C-148,-11 148,-11 148,-11 C154.0749969482422,-11 159,-6.074999809265137 159,0 C159,6.074999809265137 154.0749969482422,11 148,11 C148,11 -148,11 -148,11 C-154.0749969482422,11 -159,6.074999809265137 -159,0 C-159,-6.074999809265137 -154.0749969482422,-11 -148,-11z"></path></g><g opacity="1" transform="matrix(1,0,0,1,105.25,75.25)"><path fill="rgb(223,227,234)" fill-opacity="1" d=" M-94,-11 C-94,-11 94,-11 94,-11 C100.07499694824219,-11 105,-6.074999809265137 105,0 C105,6.074999809265137 100.07499694824219,11 94,11 C94,11 -94,11 -94,11 C-100.07499694824219,11 -105,6.074999809265137 -105,0 C-105,-6.074999809265137 -100.07499694824219,-11 -94,-11z"></path></g></g><g transform="matrix(1,0,0,1,377.885986328125,885.3610229492188)" opacity="1" style="display: block;"><g opacity="1" transform="matrix(1,0,0,1,84.25,25.25)"><path fill="rgb(52,93,237)" fill-opacity="1" d=" M-76,-25 C-76,-25 76,-25 76,-25 C80.41799926757812,-25 84,-21.417999267578125 84,-17 C84,-17 84,17 84,17 C84,21.41900062561035 80.41799926757812,25 76,25 C76,25 -76,25 -76,25 C-80.41899871826172,25 -84,21.41900062561035 -84,17 C-84,17 -84,-17 -84,-17 C-84,-21.417999267578125 -80.41899871826172,-25 -76,-25z"></path></g></g><g transform="matrix(1,0,0,1,585.885986328125,885.3610229492188)" opacity="1" style="display: block;"><g opacity="1" transform="matrix(1,0,0,1,84.25,25.25)"><path fill="rgb(223,227,234)" fill-opacity="1" d=" M-76,-25 C-76,-25 76,-25 76,-25 C80.41799926757812,-25 84,-21.417999267578125 84,-17 C84,-17 84,17 84,17 C84,21.41900062561035 80.41799926757812,25 76,25 C76,25 -76,25 -76,25 C-80.41899871826172,25 -84,21.41900062561035 -84,17 C-84,17 -84,-17 -84,-17 C-84,-21.417999267578125 -80.41899871826172,-25 -76,-25z"></path></g></g></g></g></svg>